<?xml version="1.0" encoding="UTF-8"?>
<svg xmlns="http://www.w3.org/2000/svg" xmlns:xlink="http://www.w3.org/1999/xlink" width="640px" height="311px" viewBox="0 0 639 311" version="1.1">
<g id="surface1">
<path style=" stroke:none;fill-rule:nonzero;fill:rgb(100%,100%,100%);fill-opacity:1;" d="M 462.015625 0.183594 L 593.417969 0.183594 C 608.671875 0.296875 623.929688 0.144531 639.179688 0.519531 C 629.527344 9.90625 619.519531 18.914062 609.636719 28.054688 C 574.769531 60.011719 539.75 91.800781 504.722656 123.578125 C 505.113281 178.867188 505.785156 234.15625 506.34375 289.449219 C 439.117188 289.632812 371.886719 289.863281 304.660156 290.054688 C 298.992188 290.175781 293.289062 289.769531 287.660156 290.59375 C 282.964844 291.277344 278.160156 292.980469 274.917969 296.601562 C 271.34375 300.554688 269.984375 305.910156 269.105469 311.035156 C 268.027344 306.296875 267.605469 301.144531 264.648438 297.101562 C 261.851562 293.265625 257.148438 291.5 252.640625 290.671875 C 248.789062 289.960938 244.855469 289.792969 240.941406 289.835938 C 222.429688 290.273438 203.914062 290.394531 185.398438 290.582031 C 136.722656 291.011719 88.046875 291.292969 39.375 291.546875 C 39.535156 219.753906 39.871094 147.960938 40.148438 76.164062 C 40.082031 74.71875 40.449219 73.15625 39.675781 71.835938 C 37.070312 66.421875 34.070312 61.203125 31.125 55.964844 C 21.070312 38.34375 10.644531 20.9375 0.183594 3.558594 L 0.183594 3.554688 C 65.375 3.230469 130.5625 2.714844 195.757812 2.480469 C 213.796875 2.4375 231.835938 2.320312 249.875 2.488281 C 252.324219 2.59375 254.992188 2.199219 257.167969 3.601562 C 261.582031 6.226562 265.066406 10.113281 268.398438 13.957031 C 270.996094 10.765625 273.375 7.277344 276.746094 4.828125 C 280.195312 2.3125 284.550781 1.449219 288.746094 1.339844 C 297.152344 1.136719 305.558594 1.089844 313.96875 1.003906 C 353.960938 0.683594 393.953125 0.546875 433.945312 0.410156 C 443.304688 0.332031 452.667969 0.488281 462.015625 0.183594 Z M 397.664062 15.347656 C 363.097656 15.503906 328.523438 15.574219 293.953125 15.980469 C 289.957031 16.117188 285.894531 15.835938 281.980469 16.789062 C 279.625 17.335938 277.382812 18.371094 275.503906 19.898438 C 272.855469 22.03125 270.847656 24.808594 268.675781 27.402344 C 266.183594 24.558594 263.539062 21.816406 260.5 19.554688 C 258.792969 18.3125 256.863281 17.097656 254.667969 17.179688 C 244.058594 16.949219 233.445312 16.992188 222.835938 16.941406 C 158.375 16.859375 93.917969 17.121094 29.460938 17.253906 C 36.695312 31.792969 43.921875 46.335938 50.988281 60.953125 C 53.035156 65.226562 55.097656 69.488281 57.019531 73.8125 C 57.492188 74.777344 57.226562 75.878906 57.285156 76.910156 C 57.019531 143.339844 56.703125 209.765625 56.542969 276.195312 C 114.816406 275.890625 173.085938 275.640625 231.355469 274.902344 C 238.507812 274.921875 245.710938 274.183594 252.824219 275.210938 C 257.261719 275.871094 262.007812 277.261719 264.957031 280.875 C 267.894531 284.476562 268.296875 289.285156 269.324219 293.644531 C 269.984375 290.191406 270.632812 286.675781 272.164062 283.484375 C 273.597656 280.390625 276.175781 277.839844 279.351562 276.566406 C 284.542969 274.40625 290.289062 274.75 295.785156 274.914062 C 359.714844 274.871094 423.640625 274.53125 487.566406 274.316406 C 487.570312 226.152344 487.566406 177.980469 487.585938 129.816406 C 454.800781 129.808594 422.023438 129.800781 389.242188 129.816406 C 376.890625 140.292969 364.519531 150.738281 352.164062 161.207031 C 385.417969 161.210938 418.671875 161.203125 451.925781 161.207031 C 452.042969 189.058594 452.226562 216.90625 452.410156 244.757812 C 394.785156 244.761719 337.152344 244.757812 279.523438 244.757812 C 277.503906 244.746094 275.363281 245.191406 273.839844 246.601562 C 271.554688 248.769531 270.617188 251.890625 269 254.523438 C 267.136719 252.125 265.867188 249.339844 264.125 246.875 C 263.171875 245.484375 261.550781 244.609375 259.847656 244.757812 C 204 244.707031 148.148438 244.753906 92.300781 244.757812 C 92.296875 186.960938 92.296875 129.160156 92.300781 71.359375 C 92.300781 70.976562 92.226562 70.609375 92.078125 70.261719 C 89.71875 64.363281 87.660156 58.351562 85.613281 52.34375 C 120.488281 52.25 155.355469 52.097656 190.230469 52.027344 C 210.851562 52 231.46875 51.914062 252.09375 52.054688 C 253.523438 52.121094 254.976562 51.976562 256.390625 52.242188 C 257.613281 52.984375 258.34375 54.277344 259.144531 55.425781 C 263.230469 61.90625 266.195312 69.011719 269.527344 75.886719 C 271.488281 69.53125 272.488281 62.847656 275.332031 56.796875 C 276.453125 54.441406 278.414062 51.824219 281.335938 52.050781 C 314.554688 51.625 347.773438 51.605469 380.996094 51.433594 C 425.449219 51.277344 469.898438 51.15625 514.351562 51.097656 C 534.070312 51.113281 553.789062 50.996094 573.507812 51.214844 C 586.402344 39.304688 599.445312 27.542969 612.089844 15.367188 C 602.609375 15.097656 593.117188 15.175781 583.632812 15.105469 C 521.640625 14.984375 459.652344 15.15625 397.664062 15.347656 Z M 442.246094 72.949219 C 431.292969 83.21875 420.207031 93.390625 408.332031 102.589844 C 422.3125 102.523438 436.292969 102.464844 450.277344 102.417969 C 470.675781 102.402344 491.074219 102.269531 511.46875 102.597656 C 522.269531 92.679688 533.101562 82.796875 543.957031 72.945312 C 519.136719 73.0625 494.320312 73.167969 469.5 73.152344 C 460.414062 73.132812 451.328125 73.191406 442.246094 72.949219 Z M 141.089844 78.566406 C 137.804688 82.574219 135.917969 87.507812 134.457031 92.421875 C 129.390625 91.214844 124.09375 90.367188 118.90625 91.273438 C 115.78125 91.832031 112.601562 93.351562 110.925781 96.167969 C 109.148438 99.066406 109.414062 102.738281 110.542969 105.824219 C 112.335938 110.769531 115.710938 114.933594 119.28125 118.714844 C 115.890625 122.296875 112.703125 126.222656 110.828125 130.832031 C 109.582031 133.914062 109.042969 137.582031 110.597656 140.660156 C 112.050781 143.644531 115.191406 145.386719 118.335938 146.035156 C 123.6875 147.132812 129.207031 146.253906 134.453125 145.007812 C 135.851562 149.714844 137.644531 154.421875 140.671875 158.34375 C 142.714844 160.980469 145.609375 163.300781 149.0625 163.507812 C 152.460938 163.769531 155.589844 161.820312 157.75 159.339844 C 161.289062 155.273438 163.289062 150.128906 164.792969 145.011719 C 169.824219 146.191406 175.078125 147.054688 180.230469 146.171875 C 183.375 145.636719 186.578125 144.144531 188.289062 141.332031 C 190.078125 138.476562 189.859375 134.835938 188.769531 131.761719 C 186.996094 126.75 183.582031 122.53125 179.976562 118.714844 C 183.230469 115.28125 186.277344 111.535156 188.191406 107.167969 C 189.574219 103.992188 190.28125 100.195312 188.746094 96.949219 C 187.335938 93.878906 184.152344 92.0625 180.953125 91.398438 C 175.597656 90.296875 170.0625 91.152344 164.8125 92.433594 C 163.253906 87.28125 161.277344 82.066406 157.65625 77.988281 C 155.589844 75.660156 152.671875 73.808594 149.464844 73.90625 C 146.097656 73.9375 143.160156 76.054688 141.089844 78.566406 Z M 303.003906 85.292969 C 299.394531 85.839844 296.519531 88.933594 295.8125 92.453125 C 295.296875 95.121094 295.3125 97.96875 296.277344 100.535156 C 297.269531 103.203125 299.628906 105.300781 302.398438 105.964844 C 305.863281 106.804688 309.953125 106.3125 312.554688 103.675781 C 314.914062 101.375 315.582031 97.886719 315.375 94.707031 C 315.246094 91.964844 314.234375 89.140625 312.085938 87.339844 C 309.636719 85.183594 306.125 84.746094 303.003906 85.292969 Z M 319.835938 88.761719 C 318.160156 91.101562 317.761719 94.101562 317.914062 96.914062 C 318.039062 99.4375 318.914062 102.019531 320.769531 103.800781 C 323.476562 106.550781 327.945312 107.007812 331.390625 105.492188 C 333.738281 104.449219 335.136719 102.085938 335.796875 99.695312 C 334.449219 99.269531 333.109375 98.84375 331.769531 98.414062 C 331.414062 99.570312 331.03125 100.792969 330.121094 101.640625 C 328.363281 103.332031 325.253906 103.074219 323.6875 101.25 C 322.480469 99.882812 322.257812 97.964844 322.183594 96.214844 C 322.148438 94.328125 322.242188 92.292969 323.304688 90.660156 C 324.769531 88.40625 328.324219 87.933594 330.304688 89.765625 C 331.007812 90.359375 331.324219 91.246094 331.640625 92.085938 C 333.007812 91.761719 334.375 91.433594 335.746094 91.101562 C 335.265625 89.621094 334.609375 88.128906 333.394531 87.105469 C 329.503906 83.820312 322.789062 84.539062 319.835938 88.761719 Z M 218.316406 85.445312 C 218.3125 88.425781 218.316406 91.40625 218.3125 94.386719 C 217.609375 94.386719 216.902344 94.390625 216.199219 94.390625 C 216.195312 95.269531 216.195312 96.148438 216.203125 97.027344 C 216.90625 97.023438 217.613281 97.027344 218.316406 97.027344 C 218.316406 100.011719 218.3125 102.992188 218.320312 105.972656 C 221.179688 105.96875 224.039062 105.996094 226.898438 105.964844 C 228.902344 105.941406 230.984375 105.417969 232.53125 104.085938 C 234.625 102.199219 235.445312 99.285156 235.53125 96.546875 C 235.621094 93.578125 235.199219 90.351562 233.183594 88.027344 C 231.847656 86.390625 229.75 85.550781 227.667969 85.492188 C 224.554688 85.378906 221.433594 85.46875 218.316406 85.445312 Z M 236.929688 105.976562 C 238.398438 105.976562 239.871094 105.976562 241.34375 105.976562 C 241.914062 104.429688 242.46875 102.875 243.039062 101.328125 C 245.765625 101.328125 248.492188 101.324219 251.222656 101.332031 C 251.820312 102.878906 252.402344 104.429688 253.011719 105.976562 C 254.519531 105.976562 256.027344 105.976562 257.535156 105.976562 C 254.8125 99.128906 252.054688 92.300781 249.332031 85.453125 C 247.863281 85.433594 246.386719 85.441406 244.921875 85.441406 C 242.253906 92.289062 239.585938 99.128906 236.929688 105.976562 Z M 259.582031 85.445312 C 259.585938 92.289062 259.578125 99.128906 259.585938 105.972656 C 260.972656 105.976562 262.359375 105.976562 263.75 105.976562 C 263.757812 99.132812 263.746094 92.289062 263.753906 85.445312 C 262.359375 85.4375 260.972656 85.4375 259.582031 85.445312 Z M 275.640625 85.445312 C 275.640625 92.289062 275.636719 99.128906 275.640625 105.972656 C 277.03125 105.976562 278.417969 105.976562 279.808594 105.972656 C 279.816406 102.984375 279.808594 100 279.8125 97.011719 C 282.507812 97.003906 285.203125 97.007812 287.898438 97.007812 C 287.902344 100 287.894531 102.984375 287.902344 105.972656 C 289.289062 105.976562 290.675781 105.976562 292.070312 105.976562 C 292.070312 99.128906 292.070312 92.289062 292.070312 85.445312 C 290.675781 85.4375 289.289062 85.4375 287.898438 85.445312 C 287.898438 88.136719 287.898438 90.828125 287.898438 93.523438 C 285.203125 93.523438 282.507812 93.523438 279.8125 93.523438 C 279.808594 90.828125 279.8125 88.136719 279.8125 85.445312 C 278.417969 85.4375 277.03125 85.4375 275.640625 85.445312 Z M 245.152344 107.644531 C 245.144531 108.960938 245.144531 110.277344 245.152344 111.59375 C 246.472656 111.59375 247.792969 111.59375 249.113281 111.59375 C 249.117188 110.277344 249.117188 108.960938 249.113281 107.644531 C 247.792969 107.640625 246.472656 107.640625 245.152344 107.644531 Z M 303.3125 107.644531 C 303.304688 108.960938 303.304688 110.277344 303.3125 111.59375 C 304.625 111.59375 305.9375 111.59375 307.253906 111.59375 C 307.257812 110.277344 307.257812 108.960938 307.253906 107.644531 C 305.9375 107.640625 304.625 107.640625 303.3125 107.644531 Z M 225.609375 128.675781 C 217.941406 135.464844 217.496094 148.855469 224.957031 155.96875 C 229.867188 160.417969 236.515625 161.855469 242.492188 164.300781 C 244.785156 165.214844 247.375 166.453125 248.269531 168.953125 C 249.769531 173.296875 246.785156 178.378906 242.394531 179.484375 C 238.34375 180.503906 233.410156 180.011719 230.476562 176.746094 C 228.203125 174.332031 227.421875 170.960938 227.144531 167.75 C 223.507812 167.769531 219.871094 167.769531 216.238281 167.789062 C 216.484375 174.175781 218.019531 181.007812 222.679688 185.675781 C 226.949219 189.949219 233.25 191.296875 239.105469 191.246094 C 244.445312 191.277344 250.148438 189.886719 253.960938 185.917969 C 259.289062 180.417969 260.804688 172.058594 259.128906 164.746094 C 258.023438 159.960938 254.71875 155.78125 250.335938 153.570312 C 244.902344 150.464844 238.546875 149.46875 233.167969 146.265625 C 231.015625 145.097656 229.773438 142.492188 230.445312 140.097656 C 231.054688 137.359375 233.949219 135.996094 236.484375 135.601562 C 239.4375 135.238281 242.714844 135.414062 245.234375 137.167969 C 247.722656 139.019531 248.332031 142.324219 248.625 145.222656 C 252.3125 145.183594 256.003906 145.1875 259.695312 145.15625 C 259.9375 139.46875 258.328125 133.40625 254.097656 129.402344 C 250.40625 125.910156 245.207031 124.636719 240.261719 124.40625 C 235.109375 124.117188 229.582031 125.171875 225.609375 128.675781 Z M 272.285156 124.363281 C 272.285156 146.652344 272.285156 168.941406 272.289062 191.234375 C 276.089844 191.234375 279.894531 191.234375 283.699219 191.230469 C 283.703125 182.867188 283.695312 174.503906 283.699219 166.140625 C 289.464844 166.078125 295.28125 166.398438 300.996094 165.449219 C 303.226562 165.113281 305.316406 164.113281 307.117188 162.773438 C 311.527344 159.550781 313.933594 154.15625 314.457031 148.820312 C 314.953125 143.546875 314.613281 137.96875 312.15625 133.179688 C 310.109375 129.289062 306.597656 125.863281 302.152344 125.046875 C 298.339844 124.40625 294.457031 124.410156 290.605469 124.367188 C 284.496094 124.359375 278.394531 124.363281 272.285156 124.363281 Z M 237.996094 202.390625 C 240.246094 203.292969 242.46875 204.246094 244.722656 205.117188 C 246.085938 205.367188 247.496094 205.164062 248.875 205.222656 C 247.671875 204.382812 246.472656 203.53125 245.265625 202.691406 C 244.984375 202.460938 244.660156 202.359375 244.304688 202.386719 C 242.203125 202.375 240.101562 202.390625 237.996094 202.390625 Z M 304.054688 205.632812 C 303.429688 206.949219 302.808594 208.265625 302.183594 209.582031 C 302.878906 209.582031 303.585938 209.582031 304.289062 209.585938 C 305.328125 208.273438 306.359375 206.957031 307.390625 205.636719 C 306.277344 205.628906 305.167969 205.628906 304.054688 205.632812 Z M 233.234375 209.152344 C 234.511719 209.117188 235.800781 209.242188 237.074219 209.101562 C 238.027344 208.703125 238.90625 208.167969 239.835938 207.722656 C 240.792969 208.171875 241.699219 208.765625 242.703125 209.125 C 243.941406 209.207031 245.1875 209.132812 246.429688 209.152344 C 244.929688 208.292969 243.484375 207.351562 241.964844 206.539062 C 240.558594 206.433594 239.132812 206.4375 237.734375 206.535156 C 236.199219 207.347656 234.742188 208.292969 233.234375 209.152344 Z M 237.800781 210.621094 C 234.226562 211.171875 231.242188 214.070312 230.421875 217.570312 C 229.421875 221.421875 229.976562 225.945312 232.824219 228.902344 C 236.402344 232.640625 242.992188 232.632812 246.671875 229.042969 C 248.832031 226.882812 249.703125 223.71875 249.601562 220.726562 C 249.550781 217.8125 248.535156 214.773438 246.300781 212.8125 C 244.023438 210.765625 240.765625 210.089844 237.800781 210.621094 Z M 263.816406 212.46875 C 260.703125 214.910156 259.878906 219.230469 260.394531 222.96875 C 260.816406 226.289062 262.546875 229.820312 265.855469 231.050781 C 268.707031 232.035156 272.101562 232.058594 274.714844 230.410156 C 276.6875 229.183594 277.859375 227.039062 278.4375 224.84375 C 277.53125 224.609375 276.617188 224.378906 275.710938 224.148438 C 275.339844 225.535156 274.800781 226.953125 273.695312 227.921875 C 270.953125 230.410156 265.960938 229.605469 264.222656 226.304688 C 263.21875 224.390625 262.992188 222.164062 263.113281 220.039062 C 263.28125 218.183594 263.707031 216.207031 265 214.789062 C 266.75 212.835938 269.742188 212.367188 272.15625 213.199219 C 273.867188 213.796875 274.835938 215.46875 275.402344 217.09375 C 276.304688 216.882812 277.203125 216.667969 278.109375 216.453125 C 277.628906 215.105469 277.015625 213.765625 275.972656 212.757812 C 272.773438 209.605469 267.261719 209.839844 263.816406 212.46875 Z M 159.726562 210.828125 C 159.726562 211.640625 159.726562 212.453125 159.726562 213.269531 C 161.976562 213.277344 164.222656 213.269531 166.46875 213.273438 C 166.472656 219.304688 166.464844 225.332031 166.472656 231.363281 C 167.382812 231.359375 168.304688 231.363281 169.21875 231.359375 C 169.21875 225.332031 169.214844 219.300781 169.21875 213.273438 C 171.476562 213.269531 173.734375 213.277344 175.992188 213.269531 C 175.992188 212.453125 175.992188 211.640625 175.992188 210.828125 C 170.570312 210.824219 165.152344 210.820312 159.726562 210.828125 Z M 178.773438 210.824219 C 178.769531 217.671875 178.769531 224.515625 178.773438 231.363281 C 179.679688 231.363281 180.589844 231.363281 181.5 231.359375 C 181.5 228.578125 181.5 225.800781 181.5 223.023438 C 184.59375 222.878906 187.804688 223.414062 190.808594 222.449219 C 194.996094 221.035156 195.699219 214.589844 192.246094 212.023438 C 190.808594 211 188.976562 210.859375 187.269531 210.828125 C 184.4375 210.816406 181.601562 210.828125 178.773438 210.824219 Z M 210.183594 210.824219 C 210.179688 217.671875 210.179688 224.515625 210.183594 231.363281 C 211.097656 231.359375 212.015625 231.363281 212.929688 231.359375 C 212.929688 228.132812 212.925781 224.90625 212.933594 221.679688 C 216.472656 221.6875 220.011719 221.679688 223.558594 221.683594 C 223.5625 224.910156 223.550781 228.136719 223.5625 231.367188 C 224.472656 231.359375 225.382812 231.363281 226.296875 231.359375 C 226.292969 224.511719 226.300781 217.671875 226.292969 210.824219 C 225.378906 210.820312 224.46875 210.820312 223.5625 210.824219 C 223.554688 213.632812 223.5625 216.445312 223.558594 219.257812 C 220.011719 219.257812 216.472656 219.261719 212.929688 219.253906 C 212.925781 216.445312 212.929688 213.632812 212.925781 210.824219 C 212.011719 210.820312 211.097656 210.820312 210.183594 210.824219 Z M 281.824219 210.824219 C 281.824219 217.671875 281.824219 224.515625 281.828125 231.363281 C 282.730469 231.363281 283.640625 231.363281 284.554688 231.363281 C 284.558594 228.136719 284.550781 224.910156 284.554688 221.683594 C 288.101562 221.683594 291.652344 221.683594 295.199219 221.683594 C 295.199219 224.910156 295.195312 228.132812 295.199219 231.363281 C 296.109375 231.363281 297.023438 231.363281 297.9375 231.363281 C 297.941406 224.515625 297.941406 217.671875 297.941406 210.824219 C 297.023438 210.820312 296.109375 210.820312 295.199219 210.828125 C 295.195312 213.632812 295.199219 216.445312 295.199219 219.257812 C 291.652344 219.257812 288.101562 219.257812 284.554688 219.253906 C 284.550781 216.445312 284.554688 213.632812 284.554688 210.824219 C 283.640625 210.820312 282.730469 210.820312 281.824219 210.824219 Z M 302.882812 210.824219 C 302.882812 217.671875 302.878906 224.515625 302.886719 231.363281 C 303.796875 231.363281 304.707031 231.363281 305.628906 231.359375 C 305.628906 224.515625 305.628906 217.671875 305.628906 210.828125 C 304.707031 210.820312 303.792969 210.820312 302.882812 210.824219 Z M 318.277344 210.824219 C 318.269531 217.671875 318.277344 224.511719 318.273438 231.359375 C 319.148438 231.363281 320.027344 231.359375 320.902344 231.363281 C 320.910156 225.574219 320.898438 219.78125 320.910156 213.988281 C 322.894531 219.777344 324.84375 225.570312 326.816406 231.359375 C 327.636719 231.363281 328.464844 231.359375 329.289062 231.359375 C 331.269531 225.664062 333.238281 219.964844 335.226562 214.269531 C 335.226562 219.964844 335.226562 225.664062 335.226562 231.359375 C 336.097656 231.363281 336.972656 231.363281 337.855469 231.363281 C 337.855469 224.515625 337.855469 217.671875 337.855469 210.828125 C 336.628906 210.820312 335.40625 210.820312 334.1875 210.828125 C 332.203125 216.671875 330.136719 222.484375 328.203125 228.347656 C 326.304688 222.488281 324.320312 216.660156 322.371094 210.824219 C 321.003906 210.820312 319.640625 210.820312 318.277344 210.824219 Z M 342.6875 210.828125 C 342.6875 217.671875 342.6875 224.515625 342.6875 231.359375 C 343.59375 231.363281 344.496094 231.359375 345.410156 231.363281 C 345.414062 224.515625 345.410156 217.671875 345.410156 210.824219 C 344.496094 210.820312 343.59375 210.820312 342.6875 210.828125 Z M 350.160156 210.816406 C 350.136719 217.664062 350.15625 224.511719 350.148438 231.359375 C 351.023438 231.363281 351.902344 231.359375 352.785156 231.363281 C 352.789062 226.003906 352.785156 220.648438 352.789062 215.285156 C 356.371094 220.640625 359.953125 225.996094 363.519531 231.355469 C 364.460938 231.363281 365.402344 231.363281 366.34375 231.359375 C 366.339844 224.515625 366.347656 217.671875 366.339844 210.824219 C 365.460938 210.820312 364.582031 210.820312 363.707031 210.824219 C 363.703125 216.179688 363.707031 221.53125 363.707031 226.886719 C 360.128906 221.539062 356.542969 216.195312 352.984375 210.839844 C 352.039062 210.820312 351.097656 210.824219 350.160156 210.816406 Z M 370.953125 210.824219 C 370.949219 217.671875 370.949219 224.515625 370.953125 231.363281 C 371.863281 231.359375 372.78125 231.363281 373.699219 231.359375 C 373.699219 228.132812 373.691406 224.90625 373.703125 221.679688 C 377.246094 221.6875 380.796875 221.679688 384.339844 221.683594 C 384.347656 224.914062 384.335938 228.136719 384.347656 231.363281 C 385.253906 231.359375 386.160156 231.363281 387.066406 231.359375 C 387.0625 224.511719 387.070312 217.671875 387.0625 210.824219 C 386.15625 210.820312 385.25 210.820312 384.347656 210.824219 C 384.339844 213.632812 384.347656 216.445312 384.34375 219.257812 C 380.792969 219.257812 377.242188 219.261719 373.699219 219.253906 C 373.695312 216.445312 373.699219 213.632812 373.699219 210.824219 C 372.78125 210.820312 371.863281 210.820312 370.953125 210.824219 Z M 194.570312 228.46875 C 194.5625 229.433594 194.5625 230.394531 194.566406 231.363281 C 195.53125 231.363281 196.492188 231.363281 197.460938 231.363281 C 197.460938 230.394531 197.460938 229.433594 197.457031 228.46875 C 196.492188 228.464844 195.53125 228.464844 194.570312 228.46875 Z M 194.570312 228.46875 "/>
<path style=" stroke:none;fill-rule:nonzero;fill:rgb(100%,100%,100%);fill-opacity:1;" d="M 144.859375 82.265625 C 146.007812 80.8125 147.503906 79.335938 149.449219 79.179688 C 151.46875 79.125 153.074219 80.628906 154.265625 82.097656 C 156.949219 85.554688 158.449219 89.75 159.703125 93.894531 C 156.265625 95.027344 152.90625 96.375 149.609375 97.867188 C 146.335938 96.351562 142.972656 95.039062 139.554688 93.890625 C 140.792969 89.8125 142.261719 85.695312 144.859375 82.265625 Z M 144.859375 82.265625 "/>
<path style=" stroke:none;fill-rule:nonzero;fill:rgb(100%,100%,100%);fill-opacity:1;" d="M 222.472656 88.925781 C 224.71875 89.074219 227.242188 88.496094 229.25 89.769531 C 231.308594 91.347656 231.25 94.234375 231.226562 96.574219 C 231.136719 98.589844 230.847656 101.222656 228.707031 102.097656 C 226.703125 102.757812 224.542969 102.429688 222.46875 102.511719 C 222.464844 100.683594 222.46875 98.855469 222.46875 97.027344 C 223.929688 97.023438 225.390625 97.027344 226.859375 97.023438 C 226.855469 96.148438 226.855469 95.269531 226.855469 94.390625 C 225.390625 94.390625 223.929688 94.390625 222.46875 94.390625 C 222.46875 92.566406 222.464844 90.746094 222.472656 88.925781 Z M 222.472656 88.925781 "/>
<path style=" stroke:none;fill-rule:nonzero;fill:rgb(100%,100%,100%);fill-opacity:1;" d="M 303.355469 89.003906 C 305.332031 88.308594 307.765625 88.585938 309.292969 90.109375 C 310.710938 91.480469 311.074219 93.550781 311.097656 95.445312 C 311.117188 97.460938 310.792969 99.6875 309.320312 101.191406 C 307.257812 103.386719 303.3125 103.28125 301.378906 100.964844 C 299.730469 99.054688 299.613281 96.324219 299.890625 93.929688 C 300.089844 91.839844 301.304688 89.734375 303.355469 89.003906 Z M 303.355469 89.003906 "/>
<path style=" stroke:none;fill-rule:nonzero;fill:rgb(100%,100%,100%);fill-opacity:1;" d="M 244.320312 97.84375 C 245.234375 95.320312 246.148438 92.796875 247.074219 90.273438 C 248.007812 92.796875 248.945312 95.316406 249.875 97.839844 C 248.023438 97.839844 246.171875 97.835938 244.320312 97.84375 Z M 244.320312 97.84375 "/>
<path style=" stroke:none;fill-rule:nonzero;fill:rgb(100%,100%,100%);fill-opacity:1;" d="M 120.613281 96.34375 C 124.832031 95.828125 129.085938 96.554688 133.1875 97.53125 C 132.449219 101.085938 131.925781 104.675781 131.582031 108.289062 C 128.640625 110.382812 125.804688 112.621094 123.109375 115.027344 C 120.199219 111.945312 117.40625 108.621094 115.722656 104.6875 C 114.996094 102.878906 114.410156 100.671875 115.460938 98.871094 C 116.574219 97.167969 118.722656 96.625 120.613281 96.34375 Z M 120.613281 96.34375 "/>
<path style=" stroke:none;fill-rule:nonzero;fill:rgb(100%,100%,100%);fill-opacity:1;" d="M 166.070312 97.53125 C 170.640625 96.460938 175.460938 95.605469 180.121094 96.621094 C 182.085938 97.035156 184.261719 98.367188 184.332031 100.601562 C 184.441406 103.792969 182.695312 106.660156 181 109.222656 C 179.566406 111.304688 177.914062 113.21875 176.171875 115.046875 C 173.472656 112.632812 170.625 110.382812 167.671875 108.289062 C 167.324219 104.679688 166.808594 101.085938 166.070312 97.53125 Z M 166.070312 97.53125 "/>
<path style=" stroke:none;fill-rule:nonzero;fill:rgb(100%,100%,100%);fill-opacity:1;" d="M 137.351562 104.464844 C 137.621094 102.644531 137.925781 100.828125 138.296875 99.027344 C 140.035156 99.609375 141.753906 100.25 143.457031 100.9375 C 141.390625 102.0625 139.355469 103.234375 137.351562 104.464844 Z M 137.351562 104.464844 "/>
<path style=" stroke:none;fill-rule:nonzero;fill:rgb(100%,100%,100%);fill-opacity:1;" d="M 155.800781 100.9375 C 157.5 100.25 159.214844 99.609375 160.957031 99.027344 C 161.332031 100.828125 161.636719 102.644531 161.90625 104.464844 C 159.902344 103.234375 157.863281 102.0625 155.800781 100.9375 Z M 155.800781 100.9375 "/>
<path style=" stroke:none;fill-rule:nonzero;fill:rgb(100%,100%,100%);fill-opacity:1;" d="M 149.617188 103.710938 C 154.117188 105.902344 158.453125 108.421875 162.605469 111.214844 C 162.941406 115.847656 162.941406 120.503906 162.6875 125.144531 C 162.597656 125.5625 162.785156 126.175781 162.300781 126.417969 C 158.25 129.136719 154 131.574219 149.617188 133.71875 C 145.132812 131.5 140.78125 129.015625 136.640625 126.199219 C 136.304688 121.207031 136.292969 116.195312 136.648438 111.207031 C 140.796875 108.421875 145.132812 105.914062 149.617188 103.710938 Z M 149.617188 103.710938 "/>
<path style=" stroke:none;fill-rule:nonzero;fill:rgb(100%,100%,100%);fill-opacity:1;" d="M 168.097656 115.203125 C 169.535156 116.339844 170.953125 117.515625 172.324219 118.734375 C 170.957031 119.957031 169.539062 121.121094 168.097656 122.25 C 168.152344 119.898438 168.15625 117.550781 168.097656 115.203125 Z M 168.097656 115.203125 "/>
<path style=" stroke:none;fill-rule:nonzero;fill:rgb(100%,100%,100%);fill-opacity:1;" d="M 126.960938 118.714844 C 128.324219 117.496094 129.726562 116.335938 131.15625 115.203125 C 131.101562 117.542969 131.097656 119.886719 131.160156 122.222656 C 129.726562 121.09375 128.320312 119.929688 126.960938 118.714844 Z M 126.960938 118.714844 "/>
<path style=" stroke:none;fill-rule:nonzero;fill:rgb(100%,100%,100%);fill-opacity:1;" d="M 115.914062 132.296875 C 117.628906 128.5625 120.300781 125.367188 123.109375 122.40625 C 125.710938 124.722656 128.441406 126.890625 131.269531 128.917969 C 131.761719 129.1875 131.59375 129.835938 131.710938 130.289062 C 132.023438 133.515625 132.539062 136.722656 133.1875 139.898438 C 128.859375 140.921875 124.335938 141.699219 119.898438 140.972656 C 118.128906 140.628906 116.117188 139.949219 115.269531 138.207031 C 114.4375 136.28125 115.125 134.121094 115.914062 132.296875 Z M 115.914062 132.296875 "/>
<path style=" stroke:none;fill-rule:nonzero;fill:rgb(100%,100%,100%);fill-opacity:1;" d="M 167.667969 129.148438 C 170.609375 127.046875 173.449219 124.8125 176.144531 122.410156 C 179.105469 125.535156 181.945312 128.921875 183.613281 132.9375 C 184.300781 134.714844 184.832031 136.902344 183.746094 138.636719 C 182.625 140.25 180.570312 140.792969 178.734375 141.074219 C 174.484375 141.613281 170.199219 140.878906 166.070312 139.898438 C 166.808594 136.347656 167.328125 132.757812 167.667969 129.148438 Z M 167.667969 129.148438 "/>
<path style=" stroke:none;fill-rule:nonzero;fill:rgb(100%,100%,100%);fill-opacity:1;" d="M 137.351562 132.960938 C 139.355469 134.191406 141.390625 135.371094 143.460938 136.488281 C 141.757812 137.171875 140.039062 137.820312 138.296875 138.402344 C 137.925781 136.59375 137.617188 134.78125 137.351562 132.960938 Z M 137.351562 132.960938 "/>
<path style=" stroke:none;fill-rule:nonzero;fill:rgb(100%,100%,100%);fill-opacity:1;" d="M 155.792969 136.488281 C 157.863281 135.371094 159.902344 134.191406 161.90625 132.960938 C 161.640625 134.78125 161.328125 136.597656 160.957031 138.402344 C 159.214844 137.816406 157.492188 137.171875 155.792969 136.488281 Z M 155.792969 136.488281 "/>
<path style=" stroke:none;fill-rule:nonzero;fill:rgb(100%,100%,100%);fill-opacity:1;" d="M 283.699219 135.949219 C 287.863281 136 292.054688 135.789062 296.199219 136.292969 C 299.285156 136.648438 301.808594 139.1875 302.535156 142.148438 C 303.285156 145.167969 302.980469 148.625 301.085938 151.179688 C 299.941406 152.75 298.15625 153.796875 296.234375 154.070312 C 292.085938 154.738281 287.875 154.421875 283.703125 154.496094 C 283.695312 148.316406 283.703125 142.132812 283.699219 135.949219 Z M 283.699219 135.949219 "/>
<path style=" stroke:none;fill-rule:nonzero;fill:rgb(100%,100%,100%);fill-opacity:1;" d="M 139.558594 143.53125 C 142.984375 142.398438 146.339844 141.0625 149.621094 139.5625 C 152.910156 141.058594 156.269531 142.398438 159.699219 143.53125 C 158.5 147.550781 157.039062 151.585938 154.53125 154.992188 C 153.355469 156.507812 151.835938 158.078125 149.820312 158.242188 C 147.746094 158.304688 146.113281 156.734375 144.90625 155.226562 C 142.28125 151.78125 140.789062 147.636719 139.558594 143.53125 Z M 139.558594 143.53125 "/>
<path style=" stroke:none;fill-rule:nonzero;fill:rgb(100%,100%,100%);fill-opacity:1;" d="M 238.078125 213.015625 C 240.554688 212.394531 243.394531 213.175781 245.003906 215.207031 C 246.652344 217.269531 246.964844 220.074219 246.707031 222.628906 C 246.515625 224.546875 245.753906 226.484375 244.257812 227.757812 C 241.644531 230.085938 237.183594 229.894531 234.824219 227.28125 C 232.359375 224.617188 232.433594 220.53125 233.375 217.242188 C 234.027344 215.101562 235.945312 213.523438 238.078125 213.015625 Z M 238.078125 213.015625 "/>
<path style=" stroke:none;fill-rule:nonzero;fill:rgb(100%,100%,100%);fill-opacity:1;" d="M 181.5 220.570312 C 181.5 218.136719 181.5 215.707031 181.5 213.273438 C 184.007812 213.335938 186.527344 213.132812 189.027344 213.394531 C 191.871094 213.875 192.523438 218.132812 190.320312 219.753906 C 189.34375 220.441406 188.09375 220.554688 186.933594 220.570312 C 185.121094 220.574219 183.308594 220.566406 181.5 220.570312 Z M 181.5 220.570312 "/>
<path style=" stroke:none;fill-rule:nonzero;fill:rgb(0%,32.941176%,65.098039%);fill-opacity:1;" d="M 397.664062 15.347656 C 459.652344 15.15625 521.640625 14.984375 583.632812 15.105469 C 593.117188 15.175781 602.609375 15.097656 612.089844 15.367188 C 599.445312 27.542969 586.402344 39.304688 573.507812 51.214844 C 553.789062 50.996094 534.070312 51.113281 514.351562 51.097656 C 469.898438 51.15625 425.449219 51.277344 380.996094 51.433594 C 347.773438 51.605469 314.554688 51.625 281.335938 52.050781 C 278.414062 51.824219 276.453125 54.441406 275.332031 56.796875 C 272.488281 62.847656 271.488281 69.53125 269.527344 75.886719 C 266.195312 69.011719 263.230469 61.90625 259.144531 55.425781 C 258.34375 54.277344 257.613281 52.984375 256.390625 52.242188 C 254.976562 51.976562 253.523438 52.121094 252.09375 52.054688 C 231.46875 51.914062 210.851562 52 190.230469 52.027344 C 155.355469 52.097656 120.488281 52.25 85.613281 52.34375 C 87.660156 58.351562 89.71875 64.363281 92.078125 70.261719 C 92.226562 70.609375 92.300781 70.976562 92.300781 71.359375 C 92.296875 129.160156 92.296875 186.960938 92.300781 244.757812 C 148.148438 244.753906 204 244.707031 259.847656 244.757812 C 261.550781 244.609375 263.171875 245.484375 264.125 246.875 C 265.867188 249.339844 267.136719 252.125 269 254.523438 C 270.617188 251.890625 271.554688 248.769531 273.839844 246.601562 C 275.363281 245.191406 277.503906 244.746094 279.523438 244.757812 C 337.152344 244.757812 394.785156 244.761719 452.410156 244.757812 C 452.226562 216.90625 452.042969 189.058594 451.925781 161.207031 C 418.671875 161.203125 385.417969 161.210938 352.164062 161.207031 C 364.519531 150.738281 376.890625 140.292969 389.242188 129.816406 C 422.023438 129.800781 454.800781 129.808594 487.585938 129.816406 C 487.566406 177.980469 487.570312 226.152344 487.566406 274.316406 C 423.640625 274.53125 359.714844 274.871094 295.785156 274.914062 C 290.289062 274.75 284.542969 274.40625 279.351562 276.566406 C 276.175781 277.839844 273.597656 280.390625 272.164062 283.484375 C 270.632812 286.675781 269.984375 290.191406 269.324219 293.644531 C 268.296875 289.285156 267.894531 284.476562 264.957031 280.875 C 262.007812 277.261719 257.261719 275.871094 252.824219 275.210938 C 245.710938 274.183594 238.507812 274.921875 231.355469 274.902344 C 173.085938 275.640625 114.816406 275.890625 56.542969 276.195312 C 56.703125 209.765625 57.019531 143.339844 57.285156 76.910156 C 57.226562 75.878906 57.492188 74.777344 57.019531 73.8125 C 55.097656 69.488281 53.035156 65.226562 50.988281 60.953125 C 43.921875 46.335938 36.695312 31.792969 29.460938 17.253906 C 93.917969 17.121094 158.375 16.859375 222.835938 16.941406 C 233.445312 16.992188 244.058594 16.949219 254.667969 17.179688 C 256.863281 17.097656 258.792969 18.3125 260.5 19.554688 C 263.539062 21.816406 266.183594 24.558594 268.675781 27.402344 C 270.847656 24.808594 272.855469 22.03125 275.503906 19.898438 C 277.382812 18.371094 279.625 17.335938 281.980469 16.789062 C 285.894531 15.835938 289.957031 16.117188 293.953125 15.980469 C 328.523438 15.574219 363.097656 15.503906 397.664062 15.347656 Z M 397.664062 15.347656 "/>
<path style=" stroke:none;fill-rule:nonzero;fill:rgb(0%,32.941176%,65.098039%);fill-opacity:1;" d="M 442.246094 72.949219 C 451.328125 73.191406 460.414062 73.132812 469.5 73.152344 C 494.320312 73.167969 519.136719 73.0625 543.957031 72.945312 C 533.101562 82.796875 522.269531 92.679688 511.46875 102.597656 C 491.074219 102.269531 470.675781 102.402344 450.277344 102.417969 C 436.292969 102.464844 422.3125 102.523438 408.332031 102.589844 C 420.207031 93.390625 431.292969 83.21875 442.246094 72.949219 Z M 442.246094 72.949219 "/>
<path style=" stroke:none;fill-rule:nonzero;fill:rgb(0%,32.941176%,65.098039%);fill-opacity:1;" d="M 303.003906 85.292969 C 306.125 84.746094 309.636719 85.183594 312.085938 87.339844 C 314.234375 89.140625 315.246094 91.964844 315.375 94.707031 C 315.582031 97.886719 314.914062 101.375 312.554688 103.675781 C 309.953125 106.3125 305.863281 106.804688 302.398438 105.964844 C 299.628906 105.300781 297.269531 103.203125 296.277344 100.535156 C 295.3125 97.96875 295.296875 95.121094 295.8125 92.453125 C 296.519531 88.933594 299.394531 85.839844 303.003906 85.292969 Z M 303.355469 89.003906 C 301.304688 89.734375 300.089844 91.839844 299.890625 93.929688 C 299.613281 96.324219 299.730469 99.054688 301.378906 100.964844 C 303.3125 103.28125 307.257812 103.386719 309.320312 101.191406 C 310.792969 99.6875 311.117188 97.460938 311.097656 95.445312 C 311.074219 93.550781 310.710938 91.480469 309.292969 90.109375 C 307.765625 88.585938 305.332031 88.308594 303.355469 89.003906 Z M 303.355469 89.003906 "/>
<path style=" stroke:none;fill-rule:nonzero;fill:rgb(0%,32.941176%,65.098039%);fill-opacity:1;" d="M 319.835938 88.761719 C 322.789062 84.539062 329.503906 83.820312 333.394531 87.105469 C 334.609375 88.128906 335.265625 89.621094 335.746094 91.101562 C 334.375 91.433594 333.007812 91.761719 331.640625 92.085938 C 331.324219 91.246094 331.007812 90.359375 330.304688 89.765625 C 328.324219 87.933594 324.769531 88.40625 323.304688 90.660156 C 322.242188 92.292969 322.148438 94.328125 322.183594 96.214844 C 322.257812 97.964844 322.480469 99.882812 323.6875 101.25 C 325.253906 103.074219 328.363281 103.332031 330.121094 101.640625 C 331.03125 100.792969 331.414062 99.570312 331.769531 98.414062 C 333.109375 98.84375 334.449219 99.269531 335.796875 99.695312 C 335.136719 102.085938 333.738281 104.449219 331.390625 105.492188 C 327.945312 107.007812 323.476562 106.550781 320.769531 103.800781 C 318.914062 102.019531 318.039062 99.4375 317.914062 96.914062 C 317.761719 94.101562 318.160156 91.101562 319.835938 88.761719 Z M 319.835938 88.761719 "/>
<path style=" stroke:none;fill-rule:nonzero;fill:rgb(0%,32.941176%,65.098039%);fill-opacity:1;" d="M 218.316406 85.445312 C 221.433594 85.46875 224.554688 85.378906 227.667969 85.492188 C 229.75 85.550781 231.847656 86.390625 233.183594 88.027344 C 235.199219 90.351562 235.621094 93.578125 235.53125 96.546875 C 235.445312 99.285156 234.625 102.199219 232.53125 104.085938 C 230.984375 105.417969 228.902344 105.941406 226.898438 105.964844 C 224.039062 105.996094 221.179688 105.96875 218.320312 105.972656 C 218.3125 102.992188 218.316406 100.011719 218.316406 97.027344 C 217.613281 97.027344 216.90625 97.023438 216.203125 97.027344 C 216.195312 96.148438 216.195312 95.269531 216.199219 94.390625 C 216.902344 94.390625 217.609375 94.386719 218.3125 94.386719 C 218.316406 91.40625 218.3125 88.425781 218.316406 85.445312 Z M 222.472656 88.925781 C 222.464844 90.746094 222.46875 92.566406 222.46875 94.390625 C 223.929688 94.390625 225.390625 94.390625 226.855469 94.390625 C 226.855469 95.269531 226.855469 96.148438 226.859375 97.023438 C 225.390625 97.027344 223.929688 97.023438 222.46875 97.027344 C 222.46875 98.855469 222.464844 100.683594 222.46875 102.511719 C 224.542969 102.429688 226.703125 102.757812 228.707031 102.097656 C 230.847656 101.222656 231.136719 98.589844 231.226562 96.574219 C 231.25 94.234375 231.308594 91.347656 229.25 89.769531 C 227.242188 88.496094 224.71875 89.074219 222.472656 88.925781 Z M 222.472656 88.925781 "/>
<path style=" stroke:none;fill-rule:nonzero;fill:rgb(0%,32.941176%,65.098039%);fill-opacity:1;" d="M 236.929688 105.976562 C 239.585938 99.128906 242.253906 92.289062 244.921875 85.441406 C 246.386719 85.441406 247.863281 85.433594 249.332031 85.453125 C 252.054688 92.300781 254.8125 99.128906 257.535156 105.976562 C 256.027344 105.976562 254.519531 105.976562 253.011719 105.976562 C 252.402344 104.429688 251.820312 102.878906 251.222656 101.332031 C 248.492188 101.324219 245.765625 101.328125 243.039062 101.328125 C 242.46875 102.875 241.914062 104.429688 241.34375 105.976562 C 239.871094 105.976562 238.398438 105.976562 236.929688 105.976562 Z M 244.320312 97.84375 C 246.171875 97.835938 248.023438 97.839844 249.875 97.839844 C 248.945312 95.316406 248.007812 92.796875 247.074219 90.273438 C 246.148438 92.796875 245.234375 95.320312 244.320312 97.84375 Z M 244.320312 97.84375 "/>
<path style=" stroke:none;fill-rule:nonzero;fill:rgb(0%,32.941176%,65.098039%);fill-opacity:1;" d="M 259.582031 85.445312 C 260.972656 85.4375 262.359375 85.4375 263.753906 85.445312 C 263.746094 92.289062 263.757812 99.132812 263.75 105.976562 C 262.359375 105.976562 260.972656 105.976562 259.585938 105.972656 C 259.578125 99.128906 259.585938 92.289062 259.582031 85.445312 Z M 259.582031 85.445312 "/>
<path style=" stroke:none;fill-rule:nonzero;fill:rgb(0%,32.941176%,65.098039%);fill-opacity:1;" d="M 275.640625 85.445312 C 277.03125 85.4375 278.417969 85.4375 279.8125 85.445312 C 279.8125 88.136719 279.808594 90.828125 279.8125 93.523438 C 282.507812 93.523438 285.203125 93.523438 287.898438 93.523438 C 287.898438 90.828125 287.898438 88.136719 287.898438 85.445312 C 289.289062 85.4375 290.675781 85.4375 292.070312 85.445312 C 292.070312 92.289062 292.070312 99.128906 292.070312 105.976562 C 290.675781 105.976562 289.289062 105.976562 287.902344 105.972656 C 287.894531 102.984375 287.902344 100 287.898438 97.007812 C 285.203125 97.007812 282.507812 97.003906 279.8125 97.011719 C 279.808594 100 279.816406 102.984375 279.808594 105.972656 C 278.417969 105.976562 277.03125 105.976562 275.640625 105.972656 C 275.636719 99.128906 275.640625 92.289062 275.640625 85.445312 Z M 275.640625 85.445312 "/>
<path style=" stroke:none;fill-rule:nonzero;fill:rgb(0%,32.941176%,65.098039%);fill-opacity:1;" d="M 245.152344 107.644531 C 246.472656 107.640625 247.792969 107.640625 249.113281 107.644531 C 249.117188 108.960938 249.117188 110.277344 249.113281 111.59375 C 247.792969 111.59375 246.472656 111.59375 245.152344 111.59375 C 245.144531 110.277344 245.144531 108.960938 245.152344 107.644531 Z M 245.152344 107.644531 "/>
<path style=" stroke:none;fill-rule:nonzero;fill:rgb(0%,32.941176%,65.098039%);fill-opacity:1;" d="M 303.3125 107.644531 C 304.625 107.640625 305.9375 107.640625 307.253906 107.644531 C 307.257812 108.960938 307.257812 110.277344 307.253906 111.59375 C 305.9375 111.59375 304.625 111.59375 303.3125 111.59375 C 303.304688 110.277344 303.304688 108.960938 303.3125 107.644531 Z M 303.3125 107.644531 "/>
<path style=" stroke:none;fill-rule:nonzero;fill:rgb(0%,32.941176%,65.098039%);fill-opacity:1;" d="M 237.996094 202.390625 C 240.101562 202.390625 242.203125 202.375 244.304688 202.386719 C 244.660156 202.359375 244.984375 202.460938 245.265625 202.691406 C 246.472656 203.53125 247.671875 204.382812 248.875 205.222656 C 247.496094 205.164062 246.085938 205.367188 244.722656 205.117188 C 242.46875 204.246094 240.246094 203.292969 237.996094 202.390625 Z M 237.996094 202.390625 "/>
<path style=" stroke:none;fill-rule:nonzero;fill:rgb(0%,32.941176%,65.098039%);fill-opacity:1;" d="M 304.054688 205.632812 C 305.167969 205.628906 306.277344 205.628906 307.390625 205.636719 C 306.359375 206.957031 305.328125 208.273438 304.289062 209.585938 C 303.585938 209.582031 302.878906 209.582031 302.183594 209.582031 C 302.808594 208.265625 303.429688 206.949219 304.054688 205.632812 Z M 304.054688 205.632812 "/>
<path style=" stroke:none;fill-rule:nonzero;fill:rgb(0%,32.941176%,65.098039%);fill-opacity:1;" d="M 233.234375 209.152344 C 234.742188 208.292969 236.199219 207.347656 237.734375 206.535156 C 239.132812 206.4375 240.558594 206.433594 241.964844 206.539062 C 243.484375 207.351562 244.929688 208.292969 246.429688 209.152344 C 245.1875 209.132812 243.941406 209.207031 242.703125 209.125 C 241.699219 208.765625 240.792969 208.171875 239.835938 207.722656 C 238.90625 208.167969 238.027344 208.703125 237.074219 209.101562 C 235.800781 209.242188 234.511719 209.117188 233.234375 209.152344 Z M 233.234375 209.152344 "/>
<path style=" stroke:none;fill-rule:nonzero;fill:rgb(0%,32.941176%,65.098039%);fill-opacity:1;" d="M 237.800781 210.621094 C 240.765625 210.089844 244.023438 210.765625 246.300781 212.8125 C 248.535156 214.773438 249.550781 217.8125 249.601562 220.726562 C 249.703125 223.71875 248.832031 226.882812 246.671875 229.042969 C 242.992188 232.632812 236.402344 232.640625 232.824219 228.902344 C 229.976562 225.945312 229.421875 221.421875 230.421875 217.570312 C 231.242188 214.070312 234.226562 211.171875 237.800781 210.621094 Z M 238.078125 213.015625 C 235.945312 213.523438 234.027344 215.101562 233.375 217.242188 C 232.433594 220.53125 232.359375 224.617188 234.824219 227.28125 C 237.183594 229.894531 241.644531 230.085938 244.257812 227.757812 C 245.753906 226.484375 246.515625 224.546875 246.707031 222.628906 C 246.964844 220.074219 246.652344 217.269531 245.003906 215.207031 C 243.394531 213.175781 240.554688 212.394531 238.078125 213.015625 Z M 238.078125 213.015625 "/>
<path style=" stroke:none;fill-rule:nonzero;fill:rgb(0%,32.941176%,65.098039%);fill-opacity:1;" d="M 263.816406 212.46875 C 267.261719 209.839844 272.773438 209.605469 275.972656 212.757812 C 277.015625 213.765625 277.628906 215.105469 278.109375 216.453125 C 277.203125 216.667969 276.304688 216.882812 275.402344 217.09375 C 274.835938 215.46875 273.867188 213.796875 272.15625 213.199219 C 269.742188 212.367188 266.75 212.835938 265 214.789062 C 263.707031 216.207031 263.28125 218.183594 263.113281 220.039062 C 262.992188 222.164062 263.21875 224.390625 264.222656 226.304688 C 265.960938 229.605469 270.953125 230.410156 273.695312 227.921875 C 274.800781 226.953125 275.339844 225.535156 275.710938 224.148438 C 276.617188 224.378906 277.53125 224.609375 278.4375 224.84375 C 277.859375 227.039062 276.6875 229.183594 274.714844 230.410156 C 272.101562 232.058594 268.707031 232.035156 265.855469 231.050781 C 262.546875 229.820312 260.816406 226.289062 260.394531 222.96875 C 259.878906 219.230469 260.703125 214.910156 263.816406 212.46875 Z M 263.816406 212.46875 "/>
<path style=" stroke:none;fill-rule:nonzero;fill:rgb(0%,32.941176%,65.098039%);fill-opacity:1;" d="M 159.726562 210.828125 C 165.152344 210.820312 170.570312 210.824219 175.992188 210.828125 C 175.992188 211.640625 175.992188 212.453125 175.992188 213.269531 C 173.734375 213.277344 171.476562 213.269531 169.21875 213.273438 C 169.214844 219.300781 169.21875 225.332031 169.21875 231.359375 C 168.304688 231.363281 167.382812 231.359375 166.472656 231.363281 C 166.464844 225.332031 166.472656 219.304688 166.46875 213.273438 C 164.222656 213.269531 161.976562 213.277344 159.726562 213.269531 C 159.726562 212.453125 159.726562 211.640625 159.726562 210.828125 Z M 159.726562 210.828125 "/>
<path style=" stroke:none;fill-rule:nonzero;fill:rgb(0%,32.941176%,65.098039%);fill-opacity:1;" d="M 178.773438 210.824219 C 181.601562 210.828125 184.4375 210.816406 187.269531 210.828125 C 188.976562 210.859375 190.808594 211 192.246094 212.023438 C 195.699219 214.589844 194.996094 221.035156 190.808594 222.449219 C 187.804688 223.414062 184.59375 222.878906 181.5 223.023438 C 181.5 225.800781 181.5 228.578125 181.5 231.359375 C 180.589844 231.363281 179.679688 231.363281 178.773438 231.363281 C 178.769531 224.515625 178.769531 217.671875 178.773438 210.824219 Z M 181.5 220.570312 C 183.308594 220.566406 185.121094 220.574219 186.933594 220.570312 C 188.09375 220.554688 189.34375 220.441406 190.320312 219.753906 C 192.523438 218.132812 191.871094 213.875 189.027344 213.394531 C 186.527344 213.132812 184.007812 213.335938 181.5 213.273438 C 181.5 215.707031 181.5 218.136719 181.5 220.570312 Z M 181.5 220.570312 "/>
<path style=" stroke:none;fill-rule:nonzero;fill:rgb(0%,32.941176%,65.098039%);fill-opacity:1;" d="M 210.183594 210.824219 C 211.097656 210.820312 212.011719 210.820312 212.925781 210.824219 C 212.929688 213.632812 212.925781 216.445312 212.929688 219.253906 C 216.472656 219.261719 220.011719 219.257812 223.558594 219.257812 C 223.5625 216.445312 223.554688 213.632812 223.5625 210.824219 C 224.46875 210.820312 225.378906 210.820312 226.292969 210.824219 C 226.300781 217.671875 226.292969 224.511719 226.296875 231.359375 C 225.382812 231.363281 224.472656 231.359375 223.5625 231.367188 C 223.550781 228.136719 223.5625 224.910156 223.558594 221.683594 C 220.011719 221.679688 216.472656 221.6875 212.933594 221.679688 C 212.925781 224.90625 212.929688 228.132812 212.929688 231.359375 C 212.015625 231.363281 211.097656 231.359375 210.183594 231.363281 C 210.179688 224.515625 210.179688 217.671875 210.183594 210.824219 Z M 210.183594 210.824219 "/>
<path style=" stroke:none;fill-rule:nonzero;fill:rgb(0%,32.941176%,65.098039%);fill-opacity:1;" d="M 281.824219 210.824219 C 282.730469 210.820312 283.640625 210.820312 284.554688 210.824219 C 284.554688 213.632812 284.550781 216.445312 284.554688 219.253906 C 288.101562 219.257812 291.652344 219.257812 295.199219 219.257812 C 295.199219 216.445312 295.195312 213.632812 295.199219 210.828125 C 296.109375 210.820312 297.023438 210.820312 297.941406 210.824219 C 297.941406 217.671875 297.941406 224.515625 297.9375 231.363281 C 297.023438 231.363281 296.109375 231.363281 295.199219 231.363281 C 295.195312 228.132812 295.199219 224.910156 295.199219 221.683594 C 291.652344 221.683594 288.101562 221.683594 284.554688 221.683594 C 284.550781 224.910156 284.558594 228.136719 284.554688 231.363281 C 283.640625 231.363281 282.730469 231.363281 281.828125 231.363281 C 281.824219 224.515625 281.824219 217.671875 281.824219 210.824219 Z M 281.824219 210.824219 "/>
<path style=" stroke:none;fill-rule:nonzero;fill:rgb(0%,32.941176%,65.098039%);fill-opacity:1;" d="M 302.882812 210.824219 C 303.792969 210.820312 304.707031 210.820312 305.628906 210.828125 C 305.628906 217.671875 305.628906 224.515625 305.628906 231.359375 C 304.707031 231.363281 303.796875 231.363281 302.886719 231.363281 C 302.878906 224.515625 302.882812 217.671875 302.882812 210.824219 Z M 302.882812 210.824219 "/>
<path style=" stroke:none;fill-rule:nonzero;fill:rgb(0%,32.941176%,65.098039%);fill-opacity:1;" d="M 318.277344 210.824219 C 319.640625 210.820312 321.003906 210.820312 322.371094 210.824219 C 324.320312 216.660156 326.304688 222.488281 328.203125 228.347656 C 330.136719 222.484375 332.203125 216.671875 334.1875 210.828125 C 335.40625 210.820312 336.628906 210.820312 337.855469 210.828125 C 337.855469 217.671875 337.855469 224.515625 337.855469 231.363281 C 336.972656 231.363281 336.097656 231.363281 335.226562 231.359375 C 335.226562 225.664062 335.226562 219.964844 335.226562 214.269531 C 333.238281 219.964844 331.269531 225.664062 329.289062 231.359375 C 328.464844 231.359375 327.636719 231.363281 326.816406 231.359375 C 324.84375 225.570312 322.894531 219.777344 320.910156 213.988281 C 320.898438 219.78125 320.910156 225.574219 320.902344 231.363281 C 320.027344 231.359375 319.148438 231.363281 318.273438 231.359375 C 318.277344 224.511719 318.269531 217.671875 318.277344 210.824219 Z M 318.277344 210.824219 "/>
<path style=" stroke:none;fill-rule:nonzero;fill:rgb(0%,32.941176%,65.098039%);fill-opacity:1;" d="M 342.6875 210.828125 C 343.59375 210.820312 344.496094 210.820312 345.410156 210.824219 C 345.410156 217.671875 345.414062 224.515625 345.410156 231.363281 C 344.496094 231.359375 343.59375 231.363281 342.6875 231.359375 C 342.6875 224.515625 342.6875 217.671875 342.6875 210.828125 Z M 342.6875 210.828125 "/>
<path style=" stroke:none;fill-rule:nonzero;fill:rgb(0%,32.941176%,65.098039%);fill-opacity:1;" d="M 350.160156 210.816406 C 351.097656 210.824219 352.039062 210.820312 352.984375 210.839844 C 356.542969 216.195312 360.128906 221.539062 363.707031 226.886719 C 363.707031 221.53125 363.703125 216.179688 363.707031 210.824219 C 364.582031 210.820312 365.460938 210.820312 366.339844 210.824219 C 366.347656 217.671875 366.339844 224.515625 366.34375 231.359375 C 365.402344 231.363281 364.460938 231.363281 363.519531 231.355469 C 359.953125 225.996094 356.371094 220.640625 352.789062 215.285156 C 352.785156 220.648438 352.789062 226.003906 352.785156 231.363281 C 351.902344 231.359375 351.023438 231.363281 350.148438 231.359375 C 350.15625 224.511719 350.136719 217.664062 350.160156 210.816406 Z M 350.160156 210.816406 "/>
<path style=" stroke:none;fill-rule:nonzero;fill:rgb(0%,32.941176%,65.098039%);fill-opacity:1;" d="M 370.953125 210.824219 C 371.863281 210.820312 372.78125 210.820312 373.699219 210.824219 C 373.699219 213.632812 373.695312 216.445312 373.699219 219.253906 C 377.242188 219.261719 380.792969 219.257812 384.34375 219.257812 C 384.347656 216.445312 384.339844 213.632812 384.347656 210.824219 C 385.25 210.820312 386.15625 210.820312 387.0625 210.824219 C 387.070312 217.671875 387.0625 224.511719 387.066406 231.359375 C 386.160156 231.363281 385.253906 231.359375 384.347656 231.363281 C 384.335938 228.136719 384.347656 224.914062 384.339844 221.683594 C 380.796875 221.679688 377.246094 221.6875 373.703125 221.679688 C 373.691406 224.90625 373.699219 228.132812 373.699219 231.359375 C 372.78125 231.363281 371.863281 231.359375 370.953125 231.363281 C 370.949219 224.515625 370.949219 217.671875 370.953125 210.824219 Z M 370.953125 210.824219 "/>
<path style=" stroke:none;fill-rule:nonzero;fill:rgb(0%,32.941176%,65.098039%);fill-opacity:1;" d="M 194.570312 228.46875 C 195.53125 228.464844 196.492188 228.464844 197.457031 228.46875 C 197.460938 229.433594 197.460938 230.394531 197.460938 231.363281 C 196.492188 231.363281 195.53125 231.363281 194.566406 231.363281 C 194.5625 230.394531 194.5625 229.433594 194.570312 228.46875 Z M 194.570312 228.46875 "/>
<path style=" stroke:none;fill-rule:nonzero;fill:rgb(92.54902%,12.54902%,15.686275%);fill-opacity:1;" d="M 141.089844 78.566406 C 143.160156 76.054688 146.097656 73.9375 149.464844 73.90625 C 152.671875 73.808594 155.589844 75.660156 157.65625 77.988281 C 161.277344 82.066406 163.253906 87.28125 164.8125 92.433594 C 170.0625 91.152344 175.597656 90.296875 180.953125 91.398438 C 184.152344 92.0625 187.335938 93.878906 188.746094 96.949219 C 190.28125 100.195312 189.574219 103.992188 188.191406 107.167969 C 186.277344 111.535156 183.230469 115.28125 179.976562 118.714844 C 183.582031 122.53125 186.996094 126.75 188.769531 131.761719 C 189.859375 134.835938 190.078125 138.476562 188.289062 141.332031 C 186.578125 144.144531 183.375 145.636719 180.230469 146.171875 C 175.078125 147.054688 169.824219 146.191406 164.792969 145.011719 C 163.289062 150.128906 161.289062 155.273438 157.75 159.339844 C 155.589844 161.820312 152.460938 163.769531 149.0625 163.507812 C 145.609375 163.300781 142.714844 160.980469 140.671875 158.34375 C 137.644531 154.421875 135.851562 149.714844 134.453125 145.007812 C 129.207031 146.253906 123.6875 147.132812 118.335938 146.035156 C 115.191406 145.386719 112.050781 143.644531 110.597656 140.660156 C 109.042969 137.582031 109.582031 133.914062 110.828125 130.832031 C 112.703125 126.222656 115.890625 122.296875 119.28125 118.714844 C 115.710938 114.933594 112.335938 110.769531 110.542969 105.824219 C 109.414062 102.738281 109.148438 99.066406 110.925781 96.167969 C 112.601562 93.351562 115.78125 91.832031 118.90625 91.273438 C 124.09375 90.367188 129.390625 91.214844 134.457031 92.421875 C 135.917969 87.507812 137.804688 82.574219 141.089844 78.566406 Z M 144.859375 82.265625 C 142.261719 85.695312 140.792969 89.8125 139.554688 93.890625 C 142.972656 95.039062 146.335938 96.351562 149.609375 97.867188 C 152.90625 96.375 156.265625 95.027344 159.703125 93.894531 C 158.449219 89.75 156.949219 85.554688 154.265625 82.097656 C 153.074219 80.628906 151.46875 79.125 149.449219 79.179688 C 147.503906 79.335938 146.007812 80.8125 144.859375 82.265625 Z M 120.613281 96.34375 C 118.722656 96.625 116.574219 97.167969 115.460938 98.871094 C 114.410156 100.671875 114.996094 102.878906 115.722656 104.6875 C 117.40625 108.621094 120.199219 111.945312 123.109375 115.027344 C 125.804688 112.621094 128.640625 110.382812 131.582031 108.289062 C 131.925781 104.675781 132.449219 101.085938 133.1875 97.53125 C 129.085938 96.554688 124.832031 95.828125 120.613281 96.34375 Z M 166.070312 97.53125 C 166.808594 101.085938 167.324219 104.679688 167.671875 108.289062 C 170.625 110.382812 173.472656 112.632812 176.171875 115.046875 C 177.914062 113.21875 179.566406 111.304688 181 109.222656 C 182.695312 106.660156 184.441406 103.792969 184.332031 100.601562 C 184.261719 98.367188 182.085938 97.035156 180.121094 96.621094 C 175.460938 95.605469 170.640625 96.460938 166.070312 97.53125 Z M 137.351562 104.464844 C 139.355469 103.234375 141.390625 102.0625 143.457031 100.9375 C 141.753906 100.25 140.035156 99.609375 138.296875 99.027344 C 137.925781 100.828125 137.621094 102.644531 137.351562 104.464844 Z M 155.800781 100.9375 C 157.863281 102.0625 159.902344 103.234375 161.90625 104.464844 C 161.636719 102.644531 161.332031 100.828125 160.957031 99.027344 C 159.214844 99.609375 157.5 100.25 155.800781 100.9375 Z M 149.617188 103.710938 C 145.132812 105.914062 140.796875 108.421875 136.648438 111.207031 C 136.292969 116.195312 136.304688 121.207031 136.640625 126.199219 C 140.78125 129.015625 145.132812 131.5 149.617188 133.71875 C 154 131.574219 158.25 129.136719 162.300781 126.417969 C 162.785156 126.175781 162.597656 125.5625 162.6875 125.144531 C 162.941406 120.503906 162.941406 115.847656 162.605469 111.214844 C 158.453125 108.421875 154.117188 105.902344 149.617188 103.710938 Z M 168.097656 115.203125 C 168.15625 117.550781 168.152344 119.898438 168.097656 122.25 C 169.539062 121.121094 170.957031 119.957031 172.324219 118.734375 C 170.953125 117.515625 169.535156 116.339844 168.097656 115.203125 Z M 126.960938 118.714844 C 128.320312 119.929688 129.726562 121.09375 131.160156 122.222656 C 131.097656 119.886719 131.101562 117.542969 131.15625 115.203125 C 129.726562 116.335938 128.324219 117.496094 126.960938 118.714844 Z M 115.914062 132.296875 C 115.125 134.121094 114.4375 136.28125 115.269531 138.207031 C 116.117188 139.949219 118.128906 140.628906 119.898438 140.972656 C 124.335938 141.699219 128.859375 140.921875 133.1875 139.898438 C 132.539062 136.722656 132.023438 133.515625 131.710938 130.289062 C 131.59375 129.835938 131.761719 129.1875 131.269531 128.917969 C 128.441406 126.890625 125.710938 124.722656 123.109375 122.40625 C 120.300781 125.367188 117.628906 128.5625 115.914062 132.296875 Z M 167.667969 129.148438 C 167.328125 132.757812 166.808594 136.347656 166.070312 139.898438 C 170.199219 140.878906 174.484375 141.613281 178.734375 141.074219 C 180.570312 140.792969 182.625 140.25 183.746094 138.636719 C 184.832031 136.902344 184.300781 134.714844 183.613281 132.9375 C 181.945312 128.921875 179.105469 125.535156 176.144531 122.410156 C 173.449219 124.8125 170.609375 127.046875 167.667969 129.148438 Z M 137.351562 132.960938 C 137.617188 134.78125 137.925781 136.59375 138.296875 138.402344 C 140.039062 137.820312 141.757812 137.171875 143.460938 136.488281 C 141.390625 135.371094 139.355469 134.191406 137.351562 132.960938 Z M 155.792969 136.488281 C 157.492188 137.171875 159.214844 137.816406 160.957031 138.402344 C 161.328125 136.597656 161.640625 134.78125 161.90625 132.960938 C 159.902344 134.191406 157.863281 135.371094 155.792969 136.488281 Z M 139.558594 143.53125 C 140.789062 147.636719 142.28125 151.78125 144.90625 155.226562 C 146.113281 156.734375 147.746094 158.304688 149.820312 158.242188 C 151.835938 158.078125 153.355469 156.507812 154.53125 154.992188 C 157.039062 151.585938 158.5 147.550781 159.699219 143.53125 C 156.269531 142.398438 152.910156 141.058594 149.621094 139.5625 C 146.339844 141.0625 142.984375 142.398438 139.558594 143.53125 Z M 139.558594 143.53125 "/>
<path style=" stroke:none;fill-rule:nonzero;fill:rgb(92.54902%,12.54902%,15.686275%);fill-opacity:1;" d="M 225.609375 128.675781 C 229.582031 125.171875 235.109375 124.117188 240.261719 124.40625 C 245.207031 124.636719 250.40625 125.910156 254.097656 129.402344 C 258.328125 133.40625 259.9375 139.46875 259.695312 145.15625 C 256.003906 145.1875 252.3125 145.183594 248.625 145.222656 C 248.332031 142.324219 247.722656 139.019531 245.234375 137.167969 C 242.714844 135.414062 239.4375 135.238281 236.484375 135.601562 C 233.949219 135.996094 231.054688 137.359375 230.445312 140.097656 C 229.773438 142.492188 231.015625 145.097656 233.167969 146.265625 C 238.546875 149.46875 244.902344 150.464844 250.335938 153.570312 C 254.71875 155.78125 258.023438 159.960938 259.128906 164.746094 C 260.804688 172.058594 259.289062 180.417969 253.960938 185.917969 C 250.148438 189.886719 244.445312 191.277344 239.105469 191.246094 C 233.25 191.296875 226.949219 189.949219 222.679688 185.675781 C 218.019531 181.007812 216.484375 174.175781 216.238281 167.789062 C 219.871094 167.769531 223.507812 167.769531 227.144531 167.75 C 227.421875 170.960938 228.203125 174.332031 230.476562 176.746094 C 233.410156 180.011719 238.34375 180.503906 242.394531 179.484375 C 246.785156 178.378906 249.769531 173.296875 248.269531 168.953125 C 247.375 166.453125 244.785156 165.214844 242.492188 164.300781 C 236.515625 161.855469 229.867188 160.417969 224.957031 155.96875 C 217.496094 148.855469 217.941406 135.464844 225.609375 128.675781 Z M 225.609375 128.675781 "/>
<path style=" stroke:none;fill-rule:nonzero;fill:rgb(92.54902%,12.54902%,15.686275%);fill-opacity:1;" d="M 272.285156 124.363281 C 278.394531 124.363281 284.496094 124.359375 290.605469 124.367188 C 294.457031 124.410156 298.339844 124.40625 302.152344 125.046875 C 306.597656 125.863281 310.109375 129.289062 312.15625 133.179688 C 314.613281 137.96875 314.953125 143.546875 314.457031 148.820312 C 313.933594 154.15625 311.527344 159.550781 307.117188 162.773438 C 305.316406 164.113281 303.226562 165.113281 300.996094 165.449219 C 295.28125 166.398438 289.464844 166.078125 283.699219 166.140625 C 283.695312 174.503906 283.703125 182.867188 283.699219 191.230469 C 279.894531 191.234375 276.089844 191.234375 272.289062 191.234375 C 272.285156 168.941406 272.285156 146.652344 272.285156 124.363281 Z M 283.699219 135.949219 C 283.703125 142.132812 283.695312 148.316406 283.703125 154.496094 C 287.875 154.421875 292.085938 154.738281 296.234375 154.070312 C 298.15625 153.796875 299.941406 152.75 301.085938 151.179688 C 302.980469 148.625 303.285156 145.167969 302.535156 142.148438 C 301.808594 139.1875 299.285156 136.648438 296.199219 136.292969 C 292.054688 135.789062 287.863281 136 283.699219 135.949219 Z M 283.699219 135.949219 "/>
</g>
</svg>
